<svg xmlns="http://www.w3.org/2000/svg" width="1280" height="760" viewBox="0 0 1280 760">
<rect width="1280" height="760" fill="#f4eee3"/>
<rect x="44" y="38" width="1192" height="684" rx="30" fill="#fffaf1" stroke="rgba(96,75,42,0.16)"/>
<text x="84" y="110" font-family="Palatino Linotype, serif" font-size="22" fill="#6c645c">Aggregate Code</text>
<text x="84" y="206" font-family="Palatino Linotype, serif" font-size="108" fill="#8a4b2d">N/A</text>
<text x="84" y="252" font-family="Palatino Linotype, serif" font-size="30" fill="#1a1613">Mini-IPIP 20 (en)</text>
<text x="84" y="300" font-family="Palatino Linotype, serif" font-size="24" fill="#6c645c">Code Consistency: N/A</text>
<text x="84" y="388" font-family="Palatino Linotype, serif" font-size="28" fill="#1a1613">EX</text>
<text x="150" y="388" font-family="Palatino Linotype, serif" font-size="18" fill="#6c645c">Reserved · Extraverted</text>
<rect x="84" y="404" width="480" height="18" rx="9" fill="#ede4d7"/>
<rect x="84" y="404" width="420.00" height="18" rx="9" fill="#1d6a6f"/>
<rect x="564.00" y="404" width="0.00" height="18" rx="9" fill="#cf7a31"/>
<text x="596" y="394" font-family="Palatino Linotype, serif" font-size="22" fill="#8a4b2d">R · Reserved</text>
<text x="596" y="422" font-family="Palatino Linotype, serif" font-size="18" fill="#6c645c">R=3.0 · E=0.0 · margin 3.0</text>
<text x="84" y="468" font-family="Palatino Linotype, serif" font-size="28" fill="#1a1613">AG</text>
<text x="150" y="468" font-family="Palatino Linotype, serif" font-size="18" fill="#6c645c">Tough-Minded · Agreeable</text>
<rect x="84" y="484" width="480" height="18" rx="9" fill="#ede4d7"/>
<rect x="84" y="484" width="70.00" height="18" rx="9" fill="#1d6a6f"/>
<rect x="214.00" y="484" width="350.00" height="18" rx="9" fill="#cf7a31"/>
<text x="596" y="474" font-family="Palatino Linotype, serif" font-size="22" fill="#8a4b2d">A · Agreeable</text>
<text x="596" y="502" font-family="Palatino Linotype, serif" font-size="18" fill="#6c645c">T=1.0 · A=5.0 · margin 4.0</text>
<text x="84" y="548" font-family="Palatino Linotype, serif" font-size="28" fill="#1a1613">CO</text>
<text x="150" y="548" font-family="Palatino Linotype, serif" font-size="18" fill="#6c645c">Loose · Conscientious</text>
<rect x="84" y="564" width="480" height="18" rx="9" fill="#ede4d7"/>
<rect x="84" y="564" width="336.00" height="18" rx="9" fill="#1d6a6f"/>
<rect x="480.00" y="564" width="84.00" height="18" rx="9" fill="#cf7a31"/>
<text x="596" y="554" font-family="Palatino Linotype, serif" font-size="22" fill="#8a4b2d">L · Loose</text>
<text x="596" y="582" font-family="Palatino Linotype, serif" font-size="18" fill="#6c645c">L=4.0 · C=1.0 · margin 3.0</text>
<text x="84" y="628" font-family="Palatino Linotype, serif" font-size="28" fill="#1a1613">ES</text>
<text x="150" y="628" font-family="Palatino Linotype, serif" font-size="18" fill="#6c645c">Emotionally Stable · Neurotic</text>
<rect x="84" y="644" width="480" height="18" rx="9" fill="#ede4d7"/>
<rect x="84" y="644" width="420.00" height="18" rx="9" fill="#1d6a6f"/>
<rect x="564.00" y="644" width="0.00" height="18" rx="9" fill="#cf7a31"/>
<text x="596" y="634" font-family="Palatino Linotype, serif" font-size="22" fill="#8a4b2d">S · Emotionally Stable</text>
<text x="596" y="662" font-family="Palatino Linotype, serif" font-size="18" fill="#6c645c">S=2.0 · N=0.0 · margin 2.0</text>
<text x="84" y="708" font-family="Palatino Linotype, serif" font-size="28" fill="#1a1613">OP</text>
<text x="150" y="708" font-family="Palatino Linotype, serif" font-size="18" fill="#6c645c">Practical · Open / Imaginative</text>
<rect x="84" y="724" width="480" height="18" rx="9" fill="#ede4d7"/>
<rect x="84" y="724" width="105.00" height="18" rx="9" fill="#1d6a6f"/>
<rect x="249.00" y="724" width="315.00" height="18" rx="9" fill="#cf7a31"/>
<text x="596" y="714" font-family="Palatino Linotype, serif" font-size="22" fill="#8a4b2d">O · Open / Imaginative</text>
<text x="596" y="742" font-family="Palatino Linotype, serif" font-size="18" fill="#6c645c">P=1.0 · O=3.0 · margin 2.0</text>
</svg>
