<svg xmlns="http://www.w3.org/2000/svg" width="1200" height="760" viewBox="0 0 1200 760">
<rect width="1200" height="760" fill="#120e11"/>
<rect x="40" y="36" width="1120" height="688" rx="28" fill="#1b1518" stroke="rgba(246,196,116,0.18)"/>
<text x="84" y="98" font-family="Palatino Linotype, serif" font-size="22" fill="#ccb9a7">DTTI Aggregate Character</text>
<text x="84" y="180" font-family="Palatino Linotype, serif" font-size="66" fill="#f0a44b">阿廖沙·卡拉马佐夫</text>
<text x="84" y="222" font-family="Palatino Linotype, serif" font-size="24" fill="#f7efe6">Profile Consistency: 0.50</text>
<text x="84" y="258" font-family="Palatino Linotype, serif" font-size="18" fill="#ccb9a7">DTTI</text>
<text x="84" y="286" font-family="Palatino Linotype, serif" font-size="16" fill="#ccb9a7">https://justmonikangel.github.io/-/</text>
<rect x="84" y="316" width="470" height="76" rx="18" fill="rgba(255,255,255,0.04)" stroke="rgba(246,196,116,0.18)"/>
<text x="102" y="346" font-family="Palatino Linotype, serif" font-size="20" fill="#ccb9a7">斯塔夫罗金</text>
<text x="102" y="374" font-family="Palatino Linotype, serif" font-size="28" fill="#f7efe6">4.5</text>
<rect x="594" y="316" width="470" height="76" rx="18" fill="rgba(255,255,255,0.04)" stroke="rgba(246,196,116,0.18)"/>
<text x="612" y="346" font-family="Palatino Linotype, serif" font-size="20" fill="#ccb9a7">阿芙朵嘉</text>
<text x="612" y="374" font-family="Palatino Linotype, serif" font-size="28" fill="#f7efe6">2.0</text>
<rect x="84" y="408" width="470" height="76" rx="18" fill="rgba(255,255,255,0.04)" stroke="rgba(246,196,116,0.18)"/>
<text x="102" y="438" font-family="Palatino Linotype, serif" font-size="20" fill="#ccb9a7">索尼娅</text>
<text x="102" y="466" font-family="Palatino Linotype, serif" font-size="28" fill="#f7efe6">1.5</text>
<rect x="594" y="408" width="470" height="76" rx="18" fill="rgba(255,255,255,0.04)" stroke="rgba(246,196,116,0.18)"/>
<text x="612" y="438" font-family="Palatino Linotype, serif" font-size="20" fill="#ccb9a7">伊万·卡拉马佐夫</text>
<text x="612" y="466" font-family="Palatino Linotype, serif" font-size="28" fill="#f7efe6">1.0</text>
<rect x="84" y="500" width="470" height="76" rx="18" fill="rgba(255,255,255,0.04)" stroke="rgba(246,196,116,0.18)"/>
<text x="102" y="530" font-family="Palatino Linotype, serif" font-size="20" fill="#ccb9a7">彼得·韦尔霍文斯基</text>
<text x="102" y="558" font-family="Palatino Linotype, serif" font-size="28" fill="#f7efe6">1.0</text>
<rect x="594" y="500" width="470" height="76" rx="18" fill="rgba(255,255,255,0.04)" stroke="rgba(246,196,116,0.18)"/>
<text x="612" y="530" font-family="Palatino Linotype, serif" font-size="20" fill="#ccb9a7">梅什金公爵</text>
<text x="612" y="558" font-family="Palatino Linotype, serif" font-size="28" fill="#f7efe6">0.0</text>
<rect x="84" y="592" width="470" height="76" rx="18" fill="rgba(255,255,255,0.04)" stroke="rgba(246,196,116,0.18)"/>
<text x="102" y="622" font-family="Palatino Linotype, serif" font-size="20" fill="#ccb9a7">阿廖沙·卡拉马佐夫</text>
<text x="102" y="650" font-family="Palatino Linotype, serif" font-size="28" fill="#f7efe6">0.0</text>
<rect x="594" y="592" width="470" height="76" rx="18" fill="rgba(255,255,255,0.04)" stroke="rgba(246,196,116,0.18)"/>
<text x="612" y="622" font-family="Palatino Linotype, serif" font-size="20" fill="#ccb9a7">丽萨</text>
<text x="612" y="650" font-family="Palatino Linotype, serif" font-size="28" fill="#f7efe6">0.0</text>
</svg>
